<svg xmlns="http://www.w3.org/2000/svg" viewBox="0 0 253 48" fill="none">
  <path d="M27.26 10.223c-7.972 0-13.324 4.7-13.324 13.776v6.451a5.723 5.723 0 012.567-.601c.928 0 1.802.218 2.621.601v-6.506c0-5.904 3.222-8.91 8.137-8.91 4.915 0 8.136 3.006 8.136 8.91v14.16h5.188v-14.16c.055-9.13-5.351-13.721-13.324-13.721zM43.425 24.49c0-8.254 6.007-14.322 14.527-14.322s14.417 6.068 14.417 14.323v1.913H48.941c.764 4.865 4.368 7.544 9.064 7.544 3.496 0 5.953-1.093 7.537-3.444h5.734c-2.075 5.084-6.99 8.309-13.27 8.309-8.52 0-14.582-6.068-14.582-14.323h.001zm23.537-2.733c-1.038-4.373-4.587-6.725-8.955-6.725-4.369 0-7.864 2.405-8.901 6.725h17.858-.002zM75.21 24.49c0-8.254 6.006-14.322 14.526-14.322 8.519 0 14.526 6.068 14.526 14.323s-6.007 14.323-14.526 14.323c-8.52 0-14.527-6.068-14.527-14.323zm23.864 0c0-5.52-3.713-9.456-9.284-9.456-5.57 0-9.283 3.935-9.283 9.457 0 5.521 3.713 9.457 9.283 9.457 5.57 0 9.284-3.936 9.284-9.457zM133.969 43.517h.601c3.331 0 4.587-1.476 4.587-5.358V11.098h5.188v26.733c0 6.725-2.621 10.17-9.284 10.17h-1.092V43.515zM131.404 40.727h-5.19v-6.45h-13.16c-2.622 0-4.915-1.312-5.953-3.39-.983-1.968-.71-4.264.71-6.177l11.85-15.58c1.694-2.297 4.587-3.226 7.264-2.352 2.73.875 4.479 3.335 4.479 6.232v16.673h3.93v4.648h-3.93v6.396zm-19.278-13.175c-.164.22-.219.492-.219.766 0 .71.6 1.312 1.311 1.312h12.996V12.846c0-.874-.655-1.203-.927-1.257-.109-.055-.273-.055-.492-.055-.328 0-.71.11-1.038.547l-11.631 15.471z" fill="#1A1B1D"/>
  <path d="M2.25 25.804c-.655.328-1.256.874-1.693 1.586-.437.71-.6 1.476-.547 2.24.055 1.368.82 2.625 2.075 3.335 1.147.655 2.458.491 3.713.219 1.53-.383 2.84-.547 4.205.274h.055c2.349 1.367 2.349 4.81 0 6.177h-.055c-1.366.82-2.676.656-4.205.273-1.202-.327-2.512-.491-3.713.22C.83 40.837.12 42.15.01 43.46c-.055.766.11 1.531.547 2.241.436.711.983 1.258 1.693 1.586a4.182 4.182 0 003.932-.108c1.147-.656 1.694-1.914 2.021-3.117.437-1.53.928-2.734 2.349-3.5 1.366-.82 2.676-.655 4.205-.272 1.202.328 2.512.492 3.713-.219 1.256-.71 1.966-2.022 2.075-3.334v-.546c-.055-1.367-.82-2.624-2.075-3.335-1.147-.656-2.458-.491-3.713-.218-1.53.382-2.84.546-4.205-.274-1.366-.82-1.911-1.969-2.349-3.5-.327-1.203-.874-2.404-2.02-3.116-1.256-.547-2.731-.547-3.933.055z" fill="#014063"/>
</svg>
